<svg xmlns="http://www.w3.org/2000/svg" xmlns:xlink="http://www.w3.org/1999/xlink" width="240" zoomAndPan="magnify" viewBox="0 0 180 74.999997" height="100" preserveAspectRatio="xMidYMid meet" version="1.0"><defs><g/><clipPath id="bb316013e3"><path d="M 16.027344 19.453125 L 180 19.453125 L 180 56.503906 L 16.027344 56.503906 Z M 16.027344 19.453125 " clip-rule="nonzero"/></clipPath><clipPath id="3b508eedc0"><path d="M 34.550781 19.453125 L 161.476562 19.453125 C 166.390625 19.453125 171.101562 21.40625 174.574219 24.878906 C 178.046875 28.355469 180 33.066406 180 37.980469 C 180 42.890625 178.046875 47.601562 174.574219 51.078125 C 171.101562 54.550781 166.390625 56.503906 161.476562 56.503906 L 34.550781 56.503906 C 29.636719 56.503906 24.925781 54.550781 21.453125 51.078125 C 17.980469 47.601562 16.027344 42.890625 16.027344 37.980469 C 16.027344 33.066406 17.980469 28.355469 21.453125 24.878906 C 24.925781 21.40625 29.636719 19.453125 34.550781 19.453125 Z M 34.550781 19.453125 " clip-rule="nonzero"/></clipPath><clipPath id="1905e92657"><path d="M 0 14.566406 L 46.828125 14.566406 L 46.828125 61.390625 L 0 61.390625 Z M 0 14.566406 " clip-rule="nonzero"/></clipPath><clipPath id="175f9130ac"><path d="M 23.414062 14.566406 C 10.484375 14.566406 0 25.046875 0 37.980469 C 0 50.910156 10.484375 61.390625 23.414062 61.390625 C 36.34375 61.390625 46.828125 50.910156 46.828125 37.980469 C 46.828125 25.046875 36.34375 14.566406 23.414062 14.566406 Z M 23.414062 14.566406 " clip-rule="nonzero"/></clipPath><clipPath id="e0e95172e1"><path d="M 7.101562 20.992188 L 39.351562 20.992188 L 39.351562 54 L 7.101562 54 Z M 7.101562 20.992188 " clip-rule="nonzero"/></clipPath><clipPath id="720ca9d926"><path d="M 11 48 L 20 48 L 20 56.242188 L 11 56.242188 Z M 11 48 " clip-rule="nonzero"/></clipPath></defs><g clip-path="url(#bb316013e3)"><g clip-path="url(#3b508eedc0)"><path fill="#3b8636" d="M 16.027344 19.453125 L 179.992188 19.453125 L 179.992188 56.503906 L 16.027344 56.503906 Z M 16.027344 19.453125 " fill-opacity="1" fill-rule="nonzero"/></g></g><g clip-path="url(#1905e92657)"><g clip-path="url(#175f9130ac)"><path fill="#ffffff" d="M 0 14.566406 L 46.828125 14.566406 L 46.828125 61.390625 L 0 61.390625 Z M 0 14.566406 " fill-opacity="1" fill-rule="nonzero"/></g></g><g clip-path="url(#e0e95172e1)"><path fill="#3b8636" d="M 39.34375 37.171875 C 39.34375 37.699219 39.316406 38.230469 39.265625 38.757812 C 39.214844 39.285156 39.136719 39.808594 39.03125 40.328125 C 38.929688 40.847656 38.800781 41.359375 38.648438 41.867188 C 38.496094 42.375 38.316406 42.871094 38.117188 43.363281 C 37.914062 43.851562 37.6875 44.332031 37.441406 44.796875 C 37.191406 45.265625 36.921875 45.71875 36.625 46.160156 C 36.332031 46.601562 36.019531 47.023438 35.683594 47.433594 C 35.351562 47.84375 34.996094 48.238281 34.621094 48.609375 C 34.25 48.984375 33.859375 49.339844 33.449219 49.675781 C 33.042969 50.015625 32.617188 50.328125 32.179688 50.625 C 31.742188 50.917969 31.289062 51.191406 30.824219 51.441406 C 30.359375 51.691406 29.882812 51.914062 29.394531 52.117188 C 28.90625 52.320312 28.410156 52.5 27.90625 52.652344 C 27.398438 52.808594 26.886719 52.9375 26.371094 53.039062 C 25.851562 53.144531 25.332031 53.21875 24.804688 53.273438 C 24.28125 53.324219 23.753906 53.351562 23.226562 53.351562 C 22.699219 53.351562 22.171875 53.324219 21.648438 53.273438 C 21.121094 53.21875 20.601562 53.144531 20.082031 53.039062 C 19.566406 52.9375 19.054688 52.808594 18.546875 52.652344 C 18.042969 52.5 17.546875 52.320312 17.058594 52.117188 C 16.570312 51.914062 16.09375 51.691406 15.628906 51.441406 C 15.164062 51.191406 14.710938 50.917969 14.273438 50.625 C 13.832031 50.328125 13.410156 50.015625 13.003906 49.675781 C 12.59375 49.339844 12.203125 48.984375 11.832031 48.609375 C 11.457031 48.238281 11.101562 47.84375 10.769531 47.433594 C 10.433594 47.023438 10.121094 46.601562 9.824219 46.160156 C 9.53125 45.71875 9.261719 45.265625 9.011719 44.796875 C 8.765625 44.332031 8.539062 43.851562 8.335938 43.363281 C 8.132812 42.871094 7.957031 42.375 7.804688 41.867188 C 7.652344 41.359375 7.523438 40.847656 7.417969 40.328125 C 7.316406 39.808594 7.238281 39.285156 7.1875 38.757812 C 7.136719 38.230469 7.109375 37.699219 7.109375 37.171875 C 7.109375 36.640625 7.136719 36.113281 7.1875 35.585938 C 7.238281 35.058594 7.316406 34.535156 7.417969 34.015625 C 7.523438 33.496094 7.652344 32.980469 7.804688 32.472656 C 7.957031 31.964844 8.132812 31.46875 8.335938 30.980469 C 8.539062 30.488281 8.765625 30.011719 9.011719 29.542969 C 9.261719 29.078125 9.53125 28.621094 9.824219 28.179688 C 10.121094 27.742188 10.433594 27.316406 10.769531 26.90625 C 11.101562 26.496094 11.457031 26.105469 11.832031 25.730469 C 12.203125 25.355469 12.59375 25 13.003906 24.664062 C 13.410156 24.328125 13.832031 24.011719 14.273438 23.71875 C 14.710938 23.421875 15.164062 23.152344 15.628906 22.902344 C 16.09375 22.652344 16.570312 22.425781 17.058594 22.222656 C 17.546875 22.019531 18.042969 21.839844 18.546875 21.6875 C 19.054688 21.535156 19.566406 21.40625 20.082031 21.300781 C 20.601562 21.199219 21.121094 21.121094 21.648438 21.070312 C 22.171875 21.015625 22.699219 20.992188 23.226562 20.992188 C 23.753906 20.992188 24.28125 21.015625 24.804688 21.070312 C 25.332031 21.121094 25.851562 21.199219 26.371094 21.300781 C 26.886719 21.40625 27.398438 21.535156 27.90625 21.6875 C 28.410156 21.839844 28.90625 22.019531 29.394531 22.222656 C 29.882812 22.425781 30.359375 22.652344 30.824219 22.902344 C 31.289062 23.152344 31.742188 23.421875 32.179688 23.71875 C 32.617188 24.011719 33.042969 24.328125 33.449219 24.664062 C 33.859375 25 34.25 25.355469 34.621094 25.730469 C 34.996094 26.105469 35.351562 26.496094 35.683594 26.90625 C 36.019531 27.316406 36.332031 27.742188 36.625 28.179688 C 36.921875 28.621094 37.191406 29.078125 37.441406 29.542969 C 37.6875 30.011719 37.914062 30.488281 38.117188 30.980469 C 38.316406 31.46875 38.496094 31.964844 38.648438 32.472656 C 38.800781 32.980469 38.929688 33.496094 39.03125 34.015625 C 39.136719 34.535156 39.214844 35.058594 39.265625 35.585938 C 39.316406 36.113281 39.34375 36.640625 39.34375 37.171875 Z M 39.34375 37.171875 " fill-opacity="1" fill-rule="nonzero"/></g><path fill="#ffffff" d="M 32.890625 22.292969 Z M 15.054688 28.917969 C 15.039062 28.988281 15.027344 29.058594 15.015625 29.125 C 14.894531 29.804688 14.832031 30.488281 14.824219 31.167969 C 14.824219 31.167969 14.824219 31.167969 14.824219 31.171875 C 14.824219 31.269531 14.820312 31.367188 14.824219 31.464844 C 14.898438 37.640625 19.445312 43.695312 26.28125 46 C 27.261719 46.332031 28.257812 46.183594 28.964844 45.683594 C 29.613281 45.375 30.121094 44.859375 30.382812 44.183594 C 30.410156 44.113281 30.433594 44.042969 30.457031 43.96875 C 30.617188 43.429688 30.601562 42.867188 30.445312 42.335938 L 29.273438 41.953125 L 25.933594 40.859375 L 24.652344 40.441406 C 24.265625 40.777344 23.972656 41.210938 23.820312 41.726562 C 23.796875 41.808594 23.777344 41.886719 23.761719 41.96875 C 20.71875 40.023438 18.621094 37.046875 17.960938 33.859375 C 18.738281 33.953125 19.480469 33.804688 20.085938 33.457031 L 20.007812 32.445312 L 20.007812 32.441406 L 19.730469 28.953125 L 19.667969 28.121094 C 19.4375 27.984375 19.1875 27.871094 18.921875 27.78125 C 18.8125 27.746094 18.703125 27.710938 18.59375 27.6875 C 17.152344 27.332031 15.742188 27.84375 15.054688 28.917969 Z M 15.054688 28.917969 " fill-opacity="1" fill-rule="nonzero"/><g clip-path="url(#720ca9d926)"><path fill="#3b8636" d="M 11.722656 56.242188 L 19.355469 52.460938 L 13.203125 48.433594 Z M 11.722656 56.242188 " fill-opacity="1" fill-rule="nonzero"/></g><g fill="#ffffff" fill-opacity="1"><g transform="translate(72.214298, 33.433585)"><g><path d="M 6.640625 -6.65625 L 6.640625 0 L 5.953125 0 L 5.953125 -3.0625 L 1.78125 -3.0625 L 1.78125 0 L 1.078125 0 L 1.078125 -6.65625 L 1.78125 -6.65625 L 1.78125 -3.6875 L 5.953125 -3.6875 L 5.953125 -6.65625 Z M 6.640625 -6.65625 "/></g></g></g><g fill="#ffffff" fill-opacity="1"><g transform="translate(79.935928, 33.433585)"><g><path d="M 5.4375 -5 L 5.4375 0 L 4.796875 0 L 4.796875 -0.90625 C 4.617188 -0.601562 4.375 -0.367188 4.0625 -0.203125 C 3.75 -0.0351562 3.394531 0.046875 3 0.046875 C 2.351562 0.046875 1.835938 -0.132812 1.453125 -0.5 C 1.078125 -0.863281 0.890625 -1.394531 0.890625 -2.09375 L 0.890625 -5 L 1.5625 -5 L 1.5625 -2.171875 C 1.5625 -1.640625 1.691406 -1.238281 1.953125 -0.96875 C 2.210938 -0.695312 2.582031 -0.5625 3.0625 -0.5625 C 3.59375 -0.5625 4.007812 -0.71875 4.3125 -1.03125 C 4.613281 -1.351562 4.765625 -1.800781 4.765625 -2.375 L 4.765625 -5 Z M 5.4375 -5 "/></g></g></g><g fill="#ffffff" fill-opacity="1"><g transform="translate(86.327871, 33.433585)"><g><path d="M 3.515625 -5.03125 C 3.984375 -5.03125 4.40625 -4.925781 4.78125 -4.71875 C 5.164062 -4.507812 5.460938 -4.207031 5.671875 -3.8125 C 5.890625 -3.425781 6 -2.988281 6 -2.5 C 6 -2 5.890625 -1.554688 5.671875 -1.171875 C 5.460938 -0.785156 5.164062 -0.484375 4.78125 -0.265625 C 4.40625 -0.0546875 3.984375 0.046875 3.515625 0.046875 C 3.097656 0.046875 2.722656 -0.0390625 2.390625 -0.21875 C 2.054688 -0.394531 1.789062 -0.648438 1.59375 -0.984375 L 1.59375 0 L 0.9375 0 L 0.9375 -7.046875 L 1.609375 -7.046875 L 1.609375 -4.046875 C 1.816406 -4.367188 2.082031 -4.613281 2.40625 -4.78125 C 2.738281 -4.945312 3.109375 -5.03125 3.515625 -5.03125 Z M 3.46875 -0.546875 C 3.8125 -0.546875 4.125 -0.625 4.40625 -0.78125 C 4.695312 -0.945312 4.921875 -1.175781 5.078125 -1.46875 C 5.242188 -1.769531 5.328125 -2.113281 5.328125 -2.5 C 5.328125 -2.875 5.242188 -3.210938 5.078125 -3.515625 C 4.921875 -3.816406 4.695312 -4.046875 4.40625 -4.203125 C 4.125 -4.367188 3.8125 -4.453125 3.46875 -4.453125 C 3.113281 -4.453125 2.796875 -4.367188 2.515625 -4.203125 C 2.234375 -4.046875 2.007812 -3.816406 1.84375 -3.515625 C 1.6875 -3.210938 1.609375 -2.875 1.609375 -2.5 C 1.609375 -2.113281 1.6875 -1.769531 1.84375 -1.46875 C 2.007812 -1.175781 2.234375 -0.945312 2.515625 -0.78125 C 2.796875 -0.625 3.113281 -0.546875 3.46875 -0.546875 Z M 3.46875 -0.546875 "/></g></g></g><g fill="#ffffff" fill-opacity="1"><g transform="translate(92.767312, 33.433585)"><g><path d="M 5.4375 -5 L 5.4375 0 L 4.796875 0 L 4.796875 -0.90625 C 4.617188 -0.601562 4.375 -0.367188 4.0625 -0.203125 C 3.75 -0.0351562 3.394531 0.046875 3 0.046875 C 2.351562 0.046875 1.835938 -0.132812 1.453125 -0.5 C 1.078125 -0.863281 0.890625 -1.394531 0.890625 -2.09375 L 0.890625 -5 L 1.5625 -5 L 1.5625 -2.171875 C 1.5625 -1.640625 1.691406 -1.238281 1.953125 -0.96875 C 2.210938 -0.695312 2.582031 -0.5625 3.0625 -0.5625 C 3.59375 -0.5625 4.007812 -0.71875 4.3125 -1.03125 C 4.613281 -1.351562 4.765625 -1.800781 4.765625 -2.375 L 4.765625 -5 Z M 5.4375 -5 "/></g></g></g><g fill="#ffffff" fill-opacity="1"><g transform="translate(99.159256, 33.433585)"><g><path d="M 3.484375 -5.03125 C 4.109375 -5.03125 4.601562 -4.847656 4.96875 -4.484375 C 5.34375 -4.117188 5.53125 -3.585938 5.53125 -2.890625 L 5.53125 0 L 4.859375 0 L 4.859375 -2.828125 C 4.859375 -3.347656 4.726562 -3.742188 4.46875 -4.015625 C 4.207031 -4.285156 3.835938 -4.421875 3.359375 -4.421875 C 2.828125 -4.421875 2.398438 -4.257812 2.078125 -3.9375 C 1.765625 -3.625 1.609375 -3.1875 1.609375 -2.625 L 1.609375 0 L 0.9375 0 L 0.9375 -5 L 1.59375 -5 L 1.59375 -4.078125 C 1.769531 -4.378906 2.019531 -4.613281 2.34375 -4.78125 C 2.675781 -4.945312 3.054688 -5.03125 3.484375 -5.03125 Z M 3.484375 -5.03125 "/></g></g></g><g fill="#ffffff" fill-opacity="1"><g transform="translate(105.589193, 33.433585)"><g><path d="M 5.5625 -5 L 5.5625 -0.609375 C 5.5625 0.242188 5.351562 0.875 4.9375 1.28125 C 4.53125 1.6875 3.90625 1.890625 3.0625 1.890625 C 2.601562 1.890625 2.164062 1.820312 1.75 1.6875 C 1.332031 1.550781 0.992188 1.363281 0.734375 1.125 L 1.078125 0.609375 C 1.316406 0.828125 1.609375 0.992188 1.953125 1.109375 C 2.304688 1.234375 2.671875 1.296875 3.046875 1.296875 C 3.679688 1.296875 4.144531 1.144531 4.4375 0.84375 C 4.738281 0.550781 4.890625 0.0976562 4.890625 -0.515625 L 4.890625 -1.15625 C 4.679688 -0.84375 4.40625 -0.601562 4.0625 -0.4375 C 3.726562 -0.269531 3.351562 -0.1875 2.9375 -0.1875 C 2.46875 -0.1875 2.039062 -0.289062 1.65625 -0.5 C 1.28125 -0.707031 0.984375 -0.992188 0.765625 -1.359375 C 0.546875 -1.734375 0.4375 -2.15625 0.4375 -2.625 C 0.4375 -3.09375 0.546875 -3.507812 0.765625 -3.875 C 0.984375 -4.238281 1.28125 -4.519531 1.65625 -4.71875 C 2.039062 -4.925781 2.46875 -5.03125 2.9375 -5.03125 C 3.363281 -5.03125 3.75 -4.941406 4.09375 -4.765625 C 4.4375 -4.597656 4.710938 -4.351562 4.921875 -4.03125 L 4.921875 -5 Z M 3.015625 -0.78125 C 3.367188 -0.78125 3.691406 -0.859375 3.984375 -1.015625 C 4.273438 -1.171875 4.5 -1.390625 4.65625 -1.671875 C 4.820312 -1.953125 4.90625 -2.269531 4.90625 -2.625 C 4.90625 -2.976562 4.820312 -3.289062 4.65625 -3.5625 C 4.5 -3.84375 4.273438 -4.0625 3.984375 -4.21875 C 3.703125 -4.375 3.378906 -4.453125 3.015625 -4.453125 C 2.648438 -4.453125 2.320312 -4.375 2.03125 -4.21875 C 1.75 -4.0625 1.523438 -3.84375 1.359375 -3.5625 C 1.203125 -3.289062 1.125 -2.976562 1.125 -2.625 C 1.125 -2.269531 1.203125 -1.953125 1.359375 -1.671875 C 1.523438 -1.390625 1.75 -1.171875 2.03125 -1.015625 C 2.320312 -0.859375 2.648438 -0.78125 3.015625 -0.78125 Z M 3.015625 -0.78125 "/></g></g></g><g fill="#ffffff" fill-opacity="1"><g transform="translate(112.10461, 33.433585)"><g><path d="M 0.9375 -5 L 1.609375 -5 L 1.609375 0 L 0.9375 0 Z M 1.28125 -6.09375 C 1.132812 -6.09375 1.015625 -6.140625 0.921875 -6.234375 C 0.828125 -6.328125 0.78125 -6.441406 0.78125 -6.578125 C 0.78125 -6.703125 0.828125 -6.8125 0.921875 -6.90625 C 1.015625 -7 1.132812 -7.046875 1.28125 -7.046875 C 1.414062 -7.046875 1.53125 -7 1.625 -6.90625 C 1.71875 -6.820312 1.765625 -6.710938 1.765625 -6.578125 C 1.765625 -6.441406 1.71875 -6.328125 1.625 -6.234375 C 1.53125 -6.140625 1.414062 -6.09375 1.28125 -6.09375 Z M 1.28125 -6.09375 "/></g></g></g><g fill="#ffffff" fill-opacity="1"><g transform="translate(114.659494, 33.433585)"><g/></g></g><g fill="#ffffff" fill-opacity="1"><g transform="translate(117.147894, 33.433585)"><g><path d="M 3.140625 -3.125 L 1.78125 -1.75 L 1.78125 0 L 1.078125 0 L 1.078125 -6.65625 L 1.78125 -6.65625 L 1.78125 -2.625 L 5.6875 -6.65625 L 6.5 -6.65625 L 3.625 -3.640625 L 6.703125 0 L 5.859375 0 Z M 3.140625 -3.125 "/></g></g></g><g fill="#ffffff" fill-opacity="1"><g transform="translate(123.900754, 33.433585)"><g><path d="M 2.6875 -5.03125 C 3.34375 -5.03125 3.84375 -4.867188 4.1875 -4.546875 C 4.539062 -4.222656 4.71875 -3.738281 4.71875 -3.09375 L 4.71875 0 L 4.0625 0 L 4.0625 -0.78125 C 3.914062 -0.519531 3.691406 -0.316406 3.390625 -0.171875 C 3.097656 -0.0234375 2.75 0.046875 2.34375 0.046875 C 1.789062 0.046875 1.347656 -0.0820312 1.015625 -0.34375 C 0.679688 -0.613281 0.515625 -0.96875 0.515625 -1.40625 C 0.515625 -1.832031 0.664062 -2.175781 0.96875 -2.4375 C 1.28125 -2.695312 1.773438 -2.828125 2.453125 -2.828125 L 4.03125 -2.828125 L 4.03125 -3.125 C 4.03125 -3.550781 3.910156 -3.878906 3.671875 -4.109375 C 3.429688 -4.335938 3.082031 -4.453125 2.625 -4.453125 C 2.300781 -4.453125 1.992188 -4.394531 1.703125 -4.28125 C 1.410156 -4.175781 1.160156 -4.035156 0.953125 -3.859375 L 0.65625 -4.359375 C 0.90625 -4.578125 1.207031 -4.742188 1.5625 -4.859375 C 1.914062 -4.972656 2.289062 -5.03125 2.6875 -5.03125 Z M 2.453125 -0.484375 C 2.828125 -0.484375 3.148438 -0.566406 3.421875 -0.734375 C 3.703125 -0.910156 3.90625 -1.164062 4.03125 -1.5 L 4.03125 -2.3125 L 2.46875 -2.3125 C 1.613281 -2.3125 1.1875 -2.015625 1.1875 -1.421875 C 1.1875 -1.128906 1.296875 -0.898438 1.515625 -0.734375 C 1.742188 -0.566406 2.054688 -0.484375 2.453125 -0.484375 Z M 2.453125 -0.484375 "/></g></g></g><g fill="#ffffff" fill-opacity="1"><g transform="translate(129.504393, 33.433585)"><g><path d="M 7.171875 -5.03125 C 7.796875 -5.03125 8.285156 -4.847656 8.640625 -4.484375 C 9.003906 -4.128906 9.1875 -3.597656 9.1875 -2.890625 L 9.1875 0 L 8.515625 0 L 8.515625 -2.828125 C 8.515625 -3.347656 8.390625 -3.742188 8.140625 -4.015625 C 7.890625 -4.285156 7.535156 -4.421875 7.078125 -4.421875 C 6.554688 -4.421875 6.144531 -4.257812 5.84375 -3.9375 C 5.550781 -3.625 5.40625 -3.1875 5.40625 -2.625 L 5.40625 0 L 4.734375 0 L 4.734375 -2.828125 C 4.734375 -3.347656 4.609375 -3.742188 4.359375 -4.015625 C 4.109375 -4.285156 3.75 -4.421875 3.28125 -4.421875 C 2.769531 -4.421875 2.363281 -4.257812 2.0625 -3.9375 C 1.757812 -3.625 1.609375 -3.1875 1.609375 -2.625 L 1.609375 0 L 0.9375 0 L 0.9375 -5 L 1.59375 -5 L 1.59375 -4.078125 C 1.769531 -4.390625 2.015625 -4.625 2.328125 -4.78125 C 2.640625 -4.945312 3.003906 -5.03125 3.421875 -5.03125 C 3.835938 -5.03125 4.195312 -4.941406 4.5 -4.765625 C 4.8125 -4.585938 5.046875 -4.328125 5.203125 -3.984375 C 5.378906 -4.304688 5.640625 -4.5625 5.984375 -4.75 C 6.328125 -4.9375 6.722656 -5.03125 7.171875 -5.03125 Z M 7.171875 -5.03125 "/></g></g></g><g fill="#ffffff" fill-opacity="1"><g transform="translate(139.581445, 33.433585)"><g><path d="M 0.9375 -5 L 1.609375 -5 L 1.609375 0 L 0.9375 0 Z M 1.28125 -6.09375 C 1.132812 -6.09375 1.015625 -6.140625 0.921875 -6.234375 C 0.828125 -6.328125 0.78125 -6.441406 0.78125 -6.578125 C 0.78125 -6.703125 0.828125 -6.8125 0.921875 -6.90625 C 1.015625 -7 1.132812 -7.046875 1.28125 -7.046875 C 1.414062 -7.046875 1.53125 -7 1.625 -6.90625 C 1.71875 -6.820312 1.765625 -6.710938 1.765625 -6.578125 C 1.765625 -6.441406 1.71875 -6.328125 1.625 -6.234375 C 1.53125 -6.140625 1.414062 -6.09375 1.28125 -6.09375 Z M 1.28125 -6.09375 "/></g></g></g><g fill="#ffffff" fill-opacity="1"><g transform="translate(67.112213, 47.612774)"><g><path d="M 8.203125 -7.609375 L 4.921875 0 L 3.1875 0 L -0.09375 -7.609375 L 1.796875 -7.609375 L 4.109375 -2.171875 L 6.46875 -7.609375 Z M 8.203125 -7.609375 "/></g></g></g><g fill="#ffffff" fill-opacity="1"><g transform="translate(75.209688, 47.612774)"><g><path d="M 0.78125 -5.84375 L 2.46875 -5.84375 L 2.46875 0 L 0.78125 0 Z M 1.625 -6.65625 C 1.320312 -6.65625 1.070312 -6.742188 0.875 -6.921875 C 0.675781 -7.109375 0.578125 -7.335938 0.578125 -7.609375 C 0.578125 -7.867188 0.675781 -8.085938 0.875 -8.265625 C 1.070312 -8.453125 1.320312 -8.546875 1.625 -8.546875 C 1.9375 -8.546875 2.191406 -8.457031 2.390625 -8.28125 C 2.585938 -8.113281 2.6875 -7.898438 2.6875 -7.640625 C 2.6875 -7.347656 2.585938 -7.109375 2.390625 -6.921875 C 2.191406 -6.742188 1.9375 -6.65625 1.625 -6.65625 Z M 1.625 -6.65625 "/></g></g></g><g fill="#ffffff" fill-opacity="1"><g transform="translate(78.476906, 47.612774)"><g><path d="M 3.140625 -5.921875 C 4.046875 -5.921875 4.738281 -5.707031 5.21875 -5.28125 C 5.707031 -4.851562 5.953125 -4.203125 5.953125 -3.328125 L 5.953125 0 L 4.359375 0 L 4.359375 -0.734375 C 4.046875 -0.179688 3.453125 0.09375 2.578125 0.09375 C 2.128906 0.09375 1.738281 0.015625 1.40625 -0.140625 C 1.082031 -0.296875 0.832031 -0.503906 0.65625 -0.765625 C 0.488281 -1.035156 0.40625 -1.34375 0.40625 -1.6875 C 0.40625 -2.226562 0.609375 -2.65625 1.015625 -2.96875 C 1.421875 -3.28125 2.050781 -3.4375 2.90625 -3.4375 L 4.25 -3.4375 C 4.25 -3.800781 4.132812 -4.082031 3.90625 -4.28125 C 3.6875 -4.476562 3.351562 -4.578125 2.90625 -4.578125 C 2.59375 -4.578125 2.285156 -4.53125 1.984375 -4.4375 C 1.691406 -4.34375 1.441406 -4.210938 1.234375 -4.046875 L 0.625 -5.21875 C 0.9375 -5.445312 1.316406 -5.617188 1.765625 -5.734375 C 2.210938 -5.859375 2.671875 -5.921875 3.140625 -5.921875 Z M 3.015625 -1.046875 C 3.296875 -1.046875 3.546875 -1.113281 3.765625 -1.25 C 3.992188 -1.382812 4.15625 -1.582031 4.25 -1.84375 L 4.25 -2.4375 L 3.09375 -2.4375 C 2.394531 -2.4375 2.046875 -2.210938 2.046875 -1.765625 C 2.046875 -1.546875 2.128906 -1.367188 2.296875 -1.234375 C 2.472656 -1.109375 2.710938 -1.046875 3.015625 -1.046875 Z M 3.015625 -1.046875 "/></g></g></g><g fill="#ffffff" fill-opacity="1"><g transform="translate(85.174153, 47.612774)"><g/></g></g><g fill="#ffffff" fill-opacity="1"><g transform="translate(88.245987, 47.612774)"><g><path d="M 12.390625 -7.609375 L 9.90625 0 L 8.015625 0 L 6.34375 -5.140625 L 4.609375 0 L 2.734375 0 L 0.234375 -7.609375 L 2.0625 -7.609375 L 3.78125 -2.265625 L 5.578125 -7.609375 L 7.203125 -7.609375 L 8.9375 -2.21875 L 10.703125 -7.609375 Z M 12.390625 -7.609375 "/></g></g></g><g fill="#ffffff" fill-opacity="1"><g transform="translate(100.86981, 47.612774)"><g><path d="M 4.328125 -5.921875 C 5.054688 -5.921875 5.640625 -5.703125 6.078125 -5.265625 C 6.523438 -4.835938 6.75 -4.195312 6.75 -3.34375 L 6.75 0 L 5.0625 0 L 5.0625 -3.078125 C 5.0625 -3.546875 4.957031 -3.894531 4.75 -4.125 C 4.550781 -4.351562 4.257812 -4.46875 3.875 -4.46875 C 3.445312 -4.46875 3.101562 -4.332031 2.84375 -4.0625 C 2.59375 -3.800781 2.46875 -3.410156 2.46875 -2.890625 L 2.46875 0 L 0.78125 0 L 0.78125 -8.0625 L 2.46875 -8.0625 L 2.46875 -5.234375 C 2.695312 -5.460938 2.96875 -5.632812 3.28125 -5.75 C 3.601562 -5.863281 3.953125 -5.921875 4.328125 -5.921875 Z M 4.328125 -5.921875 "/></g></g></g><g fill="#ffffff" fill-opacity="1"><g transform="translate(108.370286, 47.612774)"><g><path d="M 3.140625 -5.921875 C 4.046875 -5.921875 4.738281 -5.707031 5.21875 -5.28125 C 5.707031 -4.851562 5.953125 -4.203125 5.953125 -3.328125 L 5.953125 0 L 4.359375 0 L 4.359375 -0.734375 C 4.046875 -0.179688 3.453125 0.09375 2.578125 0.09375 C 2.128906 0.09375 1.738281 0.015625 1.40625 -0.140625 C 1.082031 -0.296875 0.832031 -0.503906 0.65625 -0.765625 C 0.488281 -1.035156 0.40625 -1.34375 0.40625 -1.6875 C 0.40625 -2.226562 0.609375 -2.65625 1.015625 -2.96875 C 1.421875 -3.28125 2.050781 -3.4375 2.90625 -3.4375 L 4.25 -3.4375 C 4.25 -3.800781 4.132812 -4.082031 3.90625 -4.28125 C 3.6875 -4.476562 3.351562 -4.578125 2.90625 -4.578125 C 2.59375 -4.578125 2.285156 -4.53125 1.984375 -4.4375 C 1.691406 -4.34375 1.441406 -4.210938 1.234375 -4.046875 L 0.625 -5.21875 C 0.9375 -5.445312 1.316406 -5.617188 1.765625 -5.734375 C 2.210938 -5.859375 2.671875 -5.921875 3.140625 -5.921875 Z M 3.015625 -1.046875 C 3.296875 -1.046875 3.546875 -1.113281 3.765625 -1.25 C 3.992188 -1.382812 4.15625 -1.582031 4.25 -1.84375 L 4.25 -2.4375 L 3.09375 -2.4375 C 2.394531 -2.4375 2.046875 -2.210938 2.046875 -1.765625 C 2.046875 -1.546875 2.128906 -1.367188 2.296875 -1.234375 C 2.472656 -1.109375 2.710938 -1.046875 3.015625 -1.046875 Z M 3.015625 -1.046875 "/></g></g></g><g fill="#ffffff" fill-opacity="1"><g transform="translate(115.067533, 47.612774)"><g><path d="M 4.546875 -0.28125 C 4.378906 -0.15625 4.175781 -0.0625 3.9375 0 C 3.695312 0.0625 3.441406 0.09375 3.171875 0.09375 C 2.472656 0.09375 1.929688 -0.0820312 1.546875 -0.4375 C 1.171875 -0.800781 0.984375 -1.328125 0.984375 -2.015625 L 0.984375 -4.40625 L 0.09375 -4.40625 L 0.09375 -5.71875 L 0.984375 -5.71875 L 0.984375 -7.140625 L 2.6875 -7.140625 L 2.6875 -5.71875 L 4.140625 -5.71875 L 4.140625 -4.40625 L 2.6875 -4.40625 L 2.6875 -2.03125 C 2.6875 -1.78125 2.75 -1.585938 2.875 -1.453125 C 3 -1.328125 3.175781 -1.265625 3.40625 -1.265625 C 3.675781 -1.265625 3.90625 -1.335938 4.09375 -1.484375 Z M 4.546875 -0.28125 "/></g></g></g><g fill="#ffffff" fill-opacity="1"><g transform="translate(119.789249, 47.612774)"><g><path d="M 2.75 0.09375 C 2.257812 0.09375 1.78125 0.0351562 1.3125 -0.078125 C 0.851562 -0.203125 0.488281 -0.359375 0.21875 -0.546875 L 0.78125 -1.765625 C 1.039062 -1.597656 1.351562 -1.457031 1.71875 -1.34375 C 2.09375 -1.238281 2.457031 -1.1875 2.8125 -1.1875 C 3.53125 -1.1875 3.890625 -1.367188 3.890625 -1.734375 C 3.890625 -1.890625 3.789062 -2.003906 3.59375 -2.078125 C 3.394531 -2.148438 3.09375 -2.210938 2.6875 -2.265625 C 2.207031 -2.335938 1.8125 -2.421875 1.5 -2.515625 C 1.195312 -2.609375 0.929688 -2.773438 0.703125 -3.015625 C 0.472656 -3.253906 0.359375 -3.597656 0.359375 -4.046875 C 0.359375 -4.410156 0.460938 -4.734375 0.671875 -5.015625 C 0.890625 -5.304688 1.203125 -5.53125 1.609375 -5.6875 C 2.015625 -5.84375 2.5 -5.921875 3.0625 -5.921875 C 3.476562 -5.921875 3.890625 -5.875 4.296875 -5.78125 C 4.703125 -5.695312 5.039062 -5.578125 5.3125 -5.421875 L 4.75 -4.21875 C 4.226562 -4.5 3.664062 -4.640625 3.0625 -4.640625 C 2.695312 -4.640625 2.421875 -4.585938 2.234375 -4.484375 C 2.054688 -4.390625 1.96875 -4.265625 1.96875 -4.109375 C 1.96875 -3.921875 2.066406 -3.789062 2.265625 -3.71875 C 2.460938 -3.644531 2.773438 -3.578125 3.203125 -3.515625 C 3.679688 -3.441406 4.070312 -3.359375 4.375 -3.265625 C 4.675781 -3.171875 4.9375 -3.003906 5.15625 -2.765625 C 5.382812 -2.523438 5.5 -2.191406 5.5 -1.765625 C 5.5 -1.410156 5.390625 -1.085938 5.171875 -0.796875 C 4.960938 -0.515625 4.648438 -0.296875 4.234375 -0.140625 C 3.816406 0.015625 3.320312 0.09375 2.75 0.09375 Z M 2.75 0.09375 "/></g></g></g><g fill="#ffffff" fill-opacity="1"><g transform="translate(125.553001, 47.612774)"><g><path d="M 3.140625 -5.921875 C 4.046875 -5.921875 4.738281 -5.707031 5.21875 -5.28125 C 5.707031 -4.851562 5.953125 -4.203125 5.953125 -3.328125 L 5.953125 0 L 4.359375 0 L 4.359375 -0.734375 C 4.046875 -0.179688 3.453125 0.09375 2.578125 0.09375 C 2.128906 0.09375 1.738281 0.015625 1.40625 -0.140625 C 1.082031 -0.296875 0.832031 -0.503906 0.65625 -0.765625 C 0.488281 -1.035156 0.40625 -1.34375 0.40625 -1.6875 C 0.40625 -2.226562 0.609375 -2.65625 1.015625 -2.96875 C 1.421875 -3.28125 2.050781 -3.4375 2.90625 -3.4375 L 4.25 -3.4375 C 4.25 -3.800781 4.132812 -4.082031 3.90625 -4.28125 C 3.6875 -4.476562 3.351562 -4.578125 2.90625 -4.578125 C 2.59375 -4.578125 2.285156 -4.53125 1.984375 -4.4375 C 1.691406 -4.34375 1.441406 -4.210938 1.234375 -4.046875 L 0.625 -5.21875 C 0.9375 -5.445312 1.316406 -5.617188 1.765625 -5.734375 C 2.210938 -5.859375 2.671875 -5.921875 3.140625 -5.921875 Z M 3.015625 -1.046875 C 3.296875 -1.046875 3.546875 -1.113281 3.765625 -1.25 C 3.992188 -1.382812 4.15625 -1.582031 4.25 -1.84375 L 4.25 -2.4375 L 3.09375 -2.4375 C 2.394531 -2.4375 2.046875 -2.210938 2.046875 -1.765625 C 2.046875 -1.546875 2.128906 -1.367188 2.296875 -1.234375 C 2.472656 -1.109375 2.710938 -1.046875 3.015625 -1.046875 Z M 3.015625 -1.046875 "/></g></g></g><g fill="#ffffff" fill-opacity="1"><g transform="translate(132.250247, 47.612774)"><g><path d="M 4.234375 -5.921875 C 4.773438 -5.921875 5.269531 -5.796875 5.71875 -5.546875 C 6.164062 -5.304688 6.515625 -4.957031 6.765625 -4.5 C 7.015625 -4.050781 7.140625 -3.523438 7.140625 -2.921875 C 7.140625 -2.316406 7.015625 -1.785156 6.765625 -1.328125 C 6.515625 -0.878906 6.164062 -0.53125 5.71875 -0.28125 C 5.269531 -0.03125 4.773438 0.09375 4.234375 0.09375 C 3.484375 0.09375 2.894531 -0.144531 2.46875 -0.625 L 2.46875 2.109375 L 0.78125 2.109375 L 0.78125 -5.84375 L 2.40625 -5.84375 L 2.40625 -5.171875 C 2.820312 -5.671875 3.429688 -5.921875 4.234375 -5.921875 Z M 3.9375 -1.296875 C 4.375 -1.296875 4.734375 -1.441406 5.015625 -1.734375 C 5.296875 -2.035156 5.4375 -2.429688 5.4375 -2.921875 C 5.4375 -3.410156 5.296875 -3.800781 5.015625 -4.09375 C 4.734375 -4.394531 4.375 -4.546875 3.9375 -4.546875 C 3.507812 -4.546875 3.15625 -4.394531 2.875 -4.09375 C 2.59375 -3.800781 2.453125 -3.410156 2.453125 -2.921875 C 2.453125 -2.429688 2.59375 -2.035156 2.875 -1.734375 C 3.15625 -1.441406 3.507812 -1.296875 3.9375 -1.296875 Z M 3.9375 -1.296875 "/></g></g></g><g fill="#ffffff" fill-opacity="1"><g transform="translate(139.739875, 47.612774)"><g><path d="M 4.234375 -5.921875 C 4.773438 -5.921875 5.269531 -5.796875 5.71875 -5.546875 C 6.164062 -5.304688 6.515625 -4.957031 6.765625 -4.5 C 7.015625 -4.050781 7.140625 -3.523438 7.140625 -2.921875 C 7.140625 -2.316406 7.015625 -1.785156 6.765625 -1.328125 C 6.515625 -0.878906 6.164062 -0.53125 5.71875 -0.28125 C 5.269531 -0.03125 4.773438 0.09375 4.234375 0.09375 C 3.484375 0.09375 2.894531 -0.144531 2.46875 -0.625 L 2.46875 2.109375 L 0.78125 2.109375 L 0.78125 -5.84375 L 2.40625 -5.84375 L 2.40625 -5.171875 C 2.820312 -5.671875 3.429688 -5.921875 4.234375 -5.921875 Z M 3.9375 -1.296875 C 4.375 -1.296875 4.734375 -1.441406 5.015625 -1.734375 C 5.296875 -2.035156 5.4375 -2.429688 5.4375 -2.921875 C 5.4375 -3.410156 5.296875 -3.800781 5.015625 -4.09375 C 4.734375 -4.394531 4.375 -4.546875 3.9375 -4.546875 C 3.507812 -4.546875 3.15625 -4.394531 2.875 -4.09375 C 2.59375 -3.800781 2.453125 -3.410156 2.453125 -2.921875 C 2.453125 -2.429688 2.59375 -2.035156 2.875 -1.734375 C 3.15625 -1.441406 3.507812 -1.296875 3.9375 -1.296875 Z M 3.9375 -1.296875 "/></g></g></g></svg>